<?xml version="1.0" standalone="no"?>
<!DOCTYPE svg PUBLIC "-//W3C//DTD SVG 20010904//EN"
 "http://www.w3.org/TR/2001/REC-SVG-20010904/DTD/svg10.dtd">
<svg version="1.0" xmlns="http://www.w3.org/2000/svg"
 width="1563.000000pt" height="393.000000pt" viewBox="0 0 1563.000000 393.000000"
 preserveAspectRatio="xMidYMid meet">

<g transform="translate(0.000000,393.000000) scale(0.100000,-0.100000)"
fill="#000000" stroke="none">
<path d="M0 1965 l0 -1965 7815 0 7815 0 0 1965 0 1965 -7815 0 -7815 0 0
-1965z m823 972 l-62 -64 -171 172 c-95 95 -173 175 -174 178 0 4 26 34 59 67
l60 60 174 -174 175 -175 -61 -64z m11737 292 c0 -6 7 -9 15 -5 8 3 15 1 15
-5 0 -6 5 -7 10 -4 6 3 10 1 10 -6 0 -7 2 -10 5 -7 7 7 70 -54 67 -64 -1 -5 3
-8 9 -8 5 0 8 -4 4 -9 -3 -5 -1 -12 3 -15 8 -5 9 -122 2 -136 -1 -3 -2 -8 -1
-12 0 -5 -3 -8 -9 -8 -5 0 -9 -3 -8 -7 3 -10 -55 -68 -64 -65 -5 1 -8 -3 -8
-9 0 -5 -4 -7 -10 -4 -5 3 -10 2 -10 -4 0 -6 -7 -8 -15 -5 -8 4 -15 1 -15 -5
0 -14 -76 -15 -85 -1 -3 5 -12 7 -20 3 -8 -3 -15 0 -15 7 0 6 -4 9 -9 6 -5 -3
-12 1 -15 10 -3 8 -10 13 -14 10 -5 -3 -20 6 -33 21 -13 14 -17 23 -9 19 9 -5
8 -2 -2 7 -10 8 -15 17 -11 20 3 4 1 7 -6 7 -7 0 -10 4 -6 9 3 5 2 12 -2 14
-7 4 -9 102 -3 117 1 3 2 8 1 13 0 4 4 7 10 7 5 0 7 5 4 10 -3 6 -1 10 5 10 6
0 9 4 6 8 -3 5 9 22 26 38 17 16 28 22 24 14 -5 -9 -2 -8 7 2 8 10 17 15 20
11 4 -3 7 -1 7 5 0 6 6 9 14 6 8 -3 17 -1 21 5 8 15 85 14 85 0z m-630 -988
c0 -513 2 -936 5 -940 8 -7 12 -8 112 -9 l82 -2 3 -100 3 -100 -132 0 c-83 0
-134 4 -138 11 -4 6 -13 8 -21 5 -8 -3 -14 -1 -14 5 0 6 -4 8 -9 4 -5 -3 -17
2 -25 11 -9 8 -16 12 -16 9 0 -4 -14 8 -32 26 -18 19 -31 37 -30 42 1 4 -2 7
-8 7 -6 0 -9 3 -9 8 1 4 0 9 -1 12 -11 29 -14 182 -17 1000 l-3 945 125 0 125
0 0 -934z m-6810 876 c14 -1 30 -6 37 -10 6 -4 18 -4 26 -1 8 3 18 0 22 -5 3
-6 11 -9 16 -5 5 3 16 0 24 -6 8 -7 15 -9 15 -5 0 4 7 2 15 -5 8 -7 15 -9 15
-5 0 4 6 2 13 -4 8 -6 17 -8 20 -4 4 3 7 1 7 -6 0 -7 4 -10 9 -6 5 3 12 1 16
-5 4 -6 11 -8 16 -5 5 4 9 1 9 -5 0 -6 5 -8 10 -5 6 3 10 1 10 -5 0 -6 4 -9 9
-6 5 3 12 -1 15 -10 3 -8 10 -12 16 -9 5 3 10 1 10 -4 0 -6 4 -10 9 -9 5 2 17
-6 26 -17 9 -11 13 -13 9 -5 -3 8 8 -1 25 -20 18 -19 29 -28 25 -20 -4 8 14
-5 40 -30 47 -46 55 -56 34 -45 -7 4 -2 -3 12 -15 14 -12 25 -26 25 -31 0 -6
7 -14 15 -19 8 -5 11 -10 5 -10 -5 0 -2 -5 8 -11 9 -6 15 -14 12 -20 -4 -5 -1
-9 5 -9 6 0 8 -4 5 -10 -3 -5 -1 -10 5 -10 6 0 8 -4 5 -10 -3 -5 -1 -10 5 -10
6 0 8 -4 5 -10 -3 -5 -1 -10 5 -10 6 0 9 -4 5 -9 -3 -5 -1 -12 5 -16 6 -4 8
-11 5 -16 -4 -5 -1 -9 5 -9 7 0 10 -7 6 -15 -3 -8 -1 -15 5 -15 6 0 9 -7 6
-15 -4 -8 -2 -17 3 -20 5 -3 7 -12 3 -20 -3 -8 0 -15 6 -15 6 0 11 -5 11 -11
0 -5 -4 -8 -9 -4 -5 3 -12 1 -16 -5 -4 -6 -11 -8 -16 -4 -5 3 -16 1 -23 -5 -7
-6 -21 -9 -30 -5 -9 4 -16 1 -16 -6 0 -7 -7 -10 -16 -6 -9 4 -23 1 -30 -5 -7
-6 -18 -8 -23 -5 -5 4 -13 1 -16 -5 -4 -5 -14 -8 -23 -4 -8 3 -18 1 -22 -4 -3
-6 -16 -8 -28 -4 -16 4 -21 11 -17 23 3 10 1 21 -4 24 -6 4 -8 13 -4 21 3 8 0
15 -6 15 -6 0 -8 7 -5 15 4 8 1 15 -6 15 -6 0 -9 4 -5 9 3 5 1 12 -5 16 -6 4
-8 11 -5 16 4 5 1 9 -5 9 -6 0 -8 5 -5 10 3 6 1 10 -5 10 -6 0 -8 5 -5 10 3 6
1 10 -5 10 -6 0 -9 4 -6 9 3 5 -1 12 -10 15 -8 3 -13 10 -10 15 3 5 -1 12 -10
15 -8 3 -13 10 -10 14 3 5 -13 26 -34 47 -22 22 -40 35 -40 30 0 -6 -10 1 -21
15 -11 14 -18 18 -14 10 4 -10 2 -9 -8 2 -8 10 -17 15 -20 11 -4 -3 -7 -1 -7
6 0 7 -4 9 -10 6 -5 -3 -10 -1 -10 5 0 6 -4 8 -10 5 -5 -3 -10 -1 -10 5 0 6
-4 8 -10 5 -5 -3 -10 -2 -10 4 0 6 -7 8 -15 5 -8 -4 -15 -1 -15 5 0 6 -7 8
-15 5 -8 -4 -15 -1 -15 6 0 7 -7 10 -16 6 -9 -3 -21 -3 -27 1 -30 18 -236 18
-264 0 -7 -5 -17 -6 -22 -2 -5 3 -13 0 -16 -6 -4 -5 -13 -8 -21 -5 -8 3 -14 1
-14 -5 0 -6 -7 -9 -15 -5 -8 3 -15 1 -15 -5 0 -6 -4 -7 -10 -4 -5 3 -10 2 -10
-4 0 -6 -7 -8 -15 -5 -8 4 -17 -1 -21 -10 -3 -9 -10 -13 -15 -10 -5 3 -9 0 -9
-6 0 -6 -4 -9 -9 -6 -5 3 -12 -1 -15 -9 -3 -8 -9 -14 -14 -13 -5 2 -19 -8 -31
-22 -13 -14 -20 -19 -16 -12 11 21 1 14 -40 -29 -22 -23 -33 -39 -25 -35 8 4
3 -4 -12 -17 -15 -14 -24 -28 -21 -31 3 -3 -2 -8 -11 -12 -9 -3 -13 -10 -10
-15 3 -5 -2 -12 -10 -15 -9 -3 -13 -10 -10 -15 3 -5 0 -9 -6 -9 -6 0 -8 -4 -5
-10 3 -5 1 -10 -5 -10 -6 0 -8 -4 -5 -10 3 -5 1 -10 -5 -10 -6 0 -8 -4 -5 -10
3 -5 1 -10 -5 -10 -6 0 -8 -4 -5 -10 3 -5 2 -10 -4 -10 -6 0 -8 -7 -5 -15 4
-8 1 -15 -6 -15 -6 0 -9 -4 -5 -9 3 -5 1 -12 -5 -16 -6 -4 -8 -10 -5 -15 3 -5
1 -11 -4 -15 -6 -3 -8 -12 -4 -20 3 -8 0 -15 -7 -15 -7 0 -9 -8 -5 -20 4 -12
2 -20 -5 -20 -8 0 -10 -9 -6 -24 3 -14 2 -28 -4 -31 -6 -3 -7 -17 -4 -30 3
-13 2 -29 -2 -36 -10 -17 -11 -310 -1 -316 5 -3 5 -18 2 -34 -4 -19 -3 -29 5
-29 8 0 10 -9 6 -25 -4 -15 -2 -25 4 -25 7 0 9 -8 5 -20 -4 -12 -2 -20 5 -20
7 0 10 -7 7 -15 -4 -8 -2 -17 4 -20 5 -4 7 -10 4 -15 -3 -5 -1 -11 5 -15 6 -4
8 -10 5 -15 -3 -5 -1 -11 5 -15 6 -4 8 -11 5 -16 -4 -5 -1 -9 5 -9 6 0 8 -4 5
-10 -3 -5 -1 -10 5 -10 6 0 8 -4 5 -10 -3 -5 -1 -10 5 -10 6 0 8 -4 5 -10 -3
-5 -1 -10 5 -10 6 0 8 -5 5 -10 -3 -6 -1 -10 5 -10 6 0 9 -4 6 -9 -3 -5 1 -12
10 -15 8 -3 13 -10 9 -15 -3 -6 4 -15 15 -21 11 -6 18 -15 16 -19 -3 -4 18
-30 46 -57 28 -27 48 -42 44 -34 -4 8 1 5 12 -7 11 -12 22 -19 26 -16 3 3 8
-2 12 -11 3 -9 10 -13 15 -10 5 3 9 0 9 -6 0 -6 5 -8 10 -5 6 3 10 1 10 -5 0
-6 5 -8 10 -5 6 3 10 1 10 -5 0 -6 5 -8 10 -5 6 3 10 1 10 -5 0 -6 4 -9 9 -5
5 3 12 1 16 -5 4 -6 10 -8 15 -5 5 3 11 1 15 -5 4 -6 11 -8 16 -4 5 3 16 1 23
-5 7 -6 20 -9 29 -5 8 3 18 1 22 -5 3 -6 17 -8 31 -5 14 4 36 1 48 -6 15 -8
45 -10 87 -6 35 3 80 7 99 9 19 1 41 6 48 10 7 5 21 5 32 2 12 -4 20 -2 20 5
0 7 8 9 20 5 12 -4 20 -2 20 5 0 7 7 10 15 7 8 -4 17 -2 20 4 4 5 10 7 15 4 5
-3 11 -1 15 5 4 6 11 8 16 5 5 -4 9 -1 9 5 0 6 4 9 9 6 5 -3 14 1 21 9 7 8 16
12 21 9 5 -3 9 0 9 6 0 6 4 9 9 6 5 -3 12 1 15 9 3 8 9 14 14 13 5 -2 21 11
36 27 16 17 23 22 16 13 -20 -29 -6 -21 26 14 16 18 20 26 9 18 -17 -13 -17
-11 2 11 21 23 22 34 25 229 l3 205 -337 -3 -338 -3 0 108 0 108 460 -3 460
-2 0 -345 c0 -223 -4 -345 -10 -345 -6 0 -9 -4 -8 -9 2 -5 -6 -17 -17 -26 -11
-9 -13 -14 -5 -10 8 4 -3 -9 -25 -29 -22 -19 -57 -54 -79 -78 -21 -24 -35 -36
-31 -28 3 8 -1 6 -10 -5 -9 -11 -21 -19 -26 -17 -5 1 -12 -5 -15 -13 -3 -8
-10 -12 -15 -9 -5 3 -9 0 -9 -6 0 -6 -4 -8 -10 -5 -5 3 -10 1 -10 -5 0 -6 -4
-8 -10 -5 -5 3 -10 1 -10 -5 0 -6 -4 -8 -10 -5 -5 3 -10 1 -10 -5 0 -6 -4 -8
-10 -5 -5 3 -10 1 -10 -5 0 -6 -4 -8 -10 -5 -5 3 -10 1 -10 -5 0 -6 -4 -9 -9
-5 -5 3 -12 1 -16 -5 -4 -6 -11 -8 -16 -5 -5 4 -9 1 -9 -5 0 -7 -7 -10 -15 -7
-8 4 -17 2 -20 -3 -3 -5 -12 -7 -20 -3 -8 3 -15 0 -15 -7 0 -7 -8 -9 -20 -5
-12 4 -20 2 -20 -5 0 -8 -9 -10 -24 -6 -14 3 -28 1 -31 -5 -4 -6 -19 -7 -36
-4 -16 4 -34 3 -40 -1 -17 -10 -290 -11 -296 -1 -3 5 -18 5 -33 2 -16 -4 -31
-2 -35 5 -4 6 -15 8 -25 5 -10 -3 -21 -1 -25 5 -4 6 -15 8 -26 5 -11 -4 -19
-2 -19 5 0 7 -7 10 -15 7 -8 -4 -17 -2 -20 4 -4 5 -10 7 -15 4 -5 -3 -11 -1
-15 5 -4 6 -11 8 -16 5 -5 -4 -9 -1 -9 5 0 7 -7 10 -15 6 -8 -3 -15 -1 -15 5
0 6 -4 7 -10 4 -5 -3 -10 -1 -10 5 0 6 -4 8 -10 5 -5 -3 -10 -1 -10 5 0 6 -4
8 -10 5 -5 -3 -10 -1 -10 5 0 6 -4 8 -10 5 -5 -3 -10 -1 -10 5 0 6 -4 8 -10 5
-5 -3 -10 -1 -10 5 0 6 -4 9 -9 5 -6 -3 -14 3 -20 12 -6 10 -11 14 -11 8 0 -5
-10 1 -21 15 -11 14 -18 18 -14 10 4 -8 -6 -1 -22 15 -15 17 -24 24 -19 15 6
-8 -18 12 -52 45 -63 60 -72 71 -49 60 6 -4 1 3 -13 16 -14 12 -24 26 -22 31
1 5 -5 11 -13 14 -8 3 -12 10 -9 15 3 5 -2 12 -10 15 -9 3 -13 10 -10 15 3 5
0 9 -6 9 -6 0 -8 5 -5 10 3 6 -1 13 -9 16 -9 3 -13 10 -10 15 3 5 0 9 -6 9 -6
0 -8 5 -5 10 3 6 2 10 -4 10 -6 0 -8 7 -5 15 4 8 1 15 -6 15 -6 0 -8 5 -5 10
3 6 1 10 -5 10 -6 0 -9 4 -5 9 3 5 1 12 -5 16 -6 4 -8 11 -5 16 4 5 1 9 -5 9
-7 0 -10 7 -6 15 3 8 1 15 -5 15 -6 0 -9 7 -6 15 4 8 2 17 -3 20 -5 3 -7 12
-3 20 3 8 0 15 -7 15 -7 0 -9 8 -5 19 3 11 1 22 -5 26 -6 4 -8 15 -5 25 3 10
1 21 -5 25 -7 4 -9 18 -6 32 4 13 3 29 -1 36 -10 16 -10 338 0 344 5 3 5 18 2
33 -4 16 -2 31 5 35 6 4 8 15 5 25 -3 10 -1 21 5 25 6 4 8 15 5 26 -4 11 -2
19 5 19 7 0 10 7 7 15 -4 8 -2 17 3 20 5 3 7 12 3 20 -3 8 0 15 6 15 6 0 8 7
5 15 -4 8 -1 15 6 15 6 0 9 4 5 9 -3 5 -1 12 5 16 6 4 8 11 5 16 -4 5 -1 9 5
9 6 0 8 5 5 10 -3 6 -1 10 4 10 6 0 11 3 10 8 -2 15 14 52 23 52 5 0 6 5 3 10
-3 6 -1 10 5 10 6 0 8 5 5 10 -3 6 -1 10 5 10 6 0 9 4 6 9 -3 5 1 12 10 15 8
3 13 10 10 15 -3 5 1 12 9 15 8 3 14 9 13 14 -2 5 8 19 22 31 14 13 18 19 10
15 -8 -4 14 21 50 57 36 35 68 63 72 62 4 -2 12 6 18 17 6 11 15 18 21 15 5
-4 12 1 15 9 3 9 10 13 15 10 5 -3 12 2 15 10 3 9 10 13 15 10 5 -3 9 0 9 6 0
6 5 8 10 5 6 -3 10 -1 10 5 0 6 5 8 10 5 6 -3 10 -1 10 5 0 6 5 8 10 5 6 -3
10 -1 10 5 0 6 5 8 10 5 6 -3 10 -1 10 5 0 6 4 9 9 5 5 -3 12 -1 16 5 4 6 11
8 16 5 5 -4 9 -2 9 4 0 6 7 8 15 5 8 -4 15 -1 15 6 0 7 7 10 15 6 8 -3 15 -1
15 5 0 6 9 8 19 4 11 -3 22 -1 26 5 3 6 11 8 16 4 5 -3 16 0 24 6 8 6 23 9 34
5 11 -3 27 -3 35 2 12 7 219 7 296 0z m9688 -342 l-3 -180 148 3 147 3 0 -100
0 -101 -145 0 -145 0 -2 -541 c-2 -297 0 -546 4 -552 9 -14 2 -14 166 -15
l133 -2 -3 -98 -3 -97 -174 -3 c-116 -2 -178 1 -187 9 -7 6 -18 8 -24 4 -5 -3
-10 -1 -10 5 0 6 -4 8 -10 5 -5 -3 -10 -1 -10 5 0 6 -4 8 -10 5 -5 -3 -10 -1
-10 5 0 6 -4 9 -8 6 -10 -6 -58 45 -54 57 1 4 -4 10 -12 13 -8 3 -12 12 -9 20
3 8 1 14 -4 14 -5 0 -10 8 -10 18 1 9 0 270 -1 580 l-2 562 -125 0 -125 0 0
100 0 100 125 0 124 0 3 158 c3 149 4 157 23 157 11 0 25 3 32 8 6 4 18 4 27
1 9 -3 16 -1 16 6 0 7 8 9 19 5 11 -3 22 -1 26 5 4 6 15 8 25 5 10 -3 21 -1
24 4 4 5 15 9 27 8 19 -1 20 -7 17 -182z m-13480 -342 l-63 -63 -172 172 c-95
95 -173 177 -173 183 0 5 26 35 57 67 l58 58 177 -177 178 -178 -62 -62z
m5504 184 c14 -1 29 -5 33 -9 4 -4 13 -4 21 -1 8 3 14 0 14 -6 0 -6 7 -8 15
-5 8 4 15 1 15 -6 0 -6 5 -8 10 -5 6 3 10 1 10 -5 0 -6 5 -8 10 -5 6 3 10 1
10 -5 0 -6 5 -8 10 -5 6 3 10 1 10 -4 0 -6 4 -10 9 -9 5 2 17 -6 26 -17 9 -11
14 -14 10 -7 -11 21 -1 14 40 -29 22 -23 33 -39 25 -35 -8 4 -5 -1 7 -12 12
-11 19 -22 16 -26 -4 -3 -1 -6 6 -6 7 0 10 -4 7 -9 -3 -5 1 -14 9 -21 8 -7 12
-16 9 -21 -3 -5 0 -9 6 -9 6 0 8 -4 5 -10 -3 -5 -1 -10 5 -10 7 0 10 -7 6 -15
-3 -8 -1 -15 5 -15 6 0 9 -7 6 -15 -4 -8 -2 -17 4 -21 6 -3 8 -13 5 -21 -3 -8
-3 -20 1 -26 12 -18 12 -44 12 -479 0 -224 3 -413 8 -420 4 -7 8 -17 8 -22 0
-6 27 -11 60 -13 33 -2 66 -6 73 -8 8 -3 12 -32 12 -100 l0 -95 -100 0 c-66 0
-100 4 -100 11 0 6 -7 9 -15 6 -8 -4 -17 -2 -20 4 -4 5 -11 7 -16 4 -5 -4 -9
-1 -9 4 0 6 -3 10 -7 9 -10 -3 -78 65 -75 74 1 5 -3 8 -9 8 -5 0 -8 4 -4 9 3
5 1 12 -5 16 -6 4 -8 10 -5 15 3 4 -2 23 -10 41 -12 30 -17 34 -14 13 0 -4 -5
-10 -13 -15 -7 -5 -13 -12 -13 -16 0 -11 -89 -98 -97 -96 -4 2 -12 -6 -18 -17
-6 -11 -15 -18 -21 -15 -5 4 -9 1 -9 -5 0 -6 -4 -8 -10 -5 -5 3 -10 1 -10 -5
0 -6 -4 -8 -10 -5 -5 3 -10 1 -10 -5 0 -6 -4 -8 -10 -5 -5 3 -10 1 -10 -5 0
-6 -4 -8 -10 -5 -5 3 -10 2 -10 -4 0 -6 -7 -8 -15 -5 -8 4 -15 1 -15 -6 0 -7
-7 -10 -15 -7 -8 4 -17 2 -21 -4 -3 -6 -13 -8 -21 -5 -8 3 -20 3 -26 -1 -14
-9 -201 -8 -216 1 -7 4 -18 5 -26 2 -8 -3 -17 -1 -21 5 -3 6 -12 8 -20 5 -8
-3 -14 -1 -14 5 0 6 -7 9 -15 5 -8 -3 -15 -1 -15 5 0 6 -4 7 -10 4 -5 -3 -10
-1 -10 5 0 6 -4 8 -10 5 -5 -3 -10 -1 -10 5 0 6 -4 8 -10 5 -5 -3 -10 -1 -10
5 0 6 -4 9 -9 5 -6 -3 -14 2 -19 11 -5 9 -12 15 -15 15 -4 0 -28 20 -54 46
-27 26 -41 43 -33 39 8 -4 6 0 -5 9 -11 9 -19 21 -18 26 2 5 -2 9 -8 9 -5 0
-7 5 -4 10 3 6 1 10 -5 10 -6 0 -9 4 -5 9 3 5 1 12 -5 16 -6 4 -8 11 -5 16 4
5 1 9 -5 9 -7 0 -9 8 -5 20 3 11 2 20 -3 20 -9 0 -14 50 -11 110 1 14 1 40 2
58 0 17 5 32 9 32 5 0 6 9 3 20 -4 12 -2 20 5 20 6 0 9 4 5 9 -3 5 -1 12 5 16
6 4 8 11 5 16 -4 5 -1 9 5 9 6 0 9 4 6 9 -3 5 1 12 10 15 9 4 14 9 11 13 -4 3
1 12 11 20 10 9 11 12 2 7 -8 -4 10 17 40 46 30 29 59 54 63 54 4 1 12 8 17
16 5 8 10 11 10 5 0 -5 5 -2 11 8 6 9 14 15 20 12 5 -4 9 -1 9 5 0 6 5 8 10 5
6 -3 10 -1 10 5 0 6 5 8 10 5 6 -3 10 -1 10 5 0 6 5 8 10 5 6 -3 10 -1 10 5 0
7 7 10 15 6 8 -3 15 -1 15 5 0 6 4 8 9 4 5 -3 12 -1 16 4 3 6 12 8 20 4 8 -3
15 0 15 6 0 6 6 8 14 5 8 -3 17 0 21 6 4 6 15 8 25 5 10 -3 21 -1 25 5 4 6 15
8 26 5 10 -4 24 -3 31 2 17 11 80 14 276 16 l163 2 -5 65 c-9 100 -11 114 -19
128 -5 6 -6 16 -2 21 3 5 1 12 -5 16 -6 4 -8 10 -5 15 3 5 1 11 -5 15 -6 4 -8
11 -5 16 4 5 1 9 -5 9 -6 0 -9 4 -6 9 3 5 -1 12 -9 15 -8 3 -14 9 -13 13 4 10
-45 59 -54 56 -5 -2 -8 2 -8 8 0 5 -4 7 -10 4 -5 -3 -10 -1 -10 5 0 6 -4 8
-10 5 -5 -3 -10 -2 -10 4 0 6 -7 8 -15 5 -8 -4 -15 -1 -15 5 0 7 -9 9 -24 5
-13 -3 -27 -1 -30 5 -4 6 -29 11 -56 11 -27 0 -52 -5 -56 -11 -3 -6 -17 -8
-29 -5 -13 3 -26 2 -30 -4 -3 -5 -12 -7 -20 -3 -8 3 -15 0 -15 -7 0 -6 -4 -8
-10 -5 -5 3 -10 1 -10 -5 0 -6 -4 -8 -10 -5 -5 3 -10 1 -10 -6 0 -7 -3 -10 -6
-6 -4 3 -15 -4 -26 -16 -11 -12 -17 -16 -13 -9 10 19 0 14 -21 -10 -13 -14
-14 -19 -4 -14 8 4 4 -2 -10 -15 -14 -12 -24 -26 -22 -30 1 -5 -3 -9 -9 -9 -5
0 -7 -4 -4 -10 3 -5 2 -10 -4 -10 -6 0 -8 -7 -5 -15 4 -8 1 -15 -6 -15 -7 0
-10 -7 -7 -15 4 -8 2 -17 -4 -21 -6 -3 -8 -18 -4 -33 5 -23 3 -27 -17 -26 -13
0 -28 3 -35 8 -6 4 -18 4 -27 1 -9 -3 -16 -1 -16 6 0 7 -8 9 -19 5 -11 -3 -22
-1 -26 5 -3 6 -11 8 -16 4 -5 -3 -16 -1 -23 5 -7 6 -21 9 -30 5 -9 -3 -16 -1
-16 6 0 7 -8 9 -19 5 -16 -5 -18 -1 -17 24 1 16 4 33 8 36 4 4 4 13 1 21 -3 8
0 14 6 14 6 0 8 7 5 15 -4 8 -1 15 6 15 6 0 8 5 5 10 -3 6 -1 10 5 10 6 0 9 4
6 9 -3 5 1 12 10 15 8 3 13 10 10 15 -3 5 1 12 9 15 8 3 14 9 13 13 -2 4 19
31 46 58 27 28 46 43 42 35 -4 -8 1 -5 12 7 11 12 22 19 26 16 3 -3 8 2 12 11
3 9 10 13 15 10 5 -3 9 0 9 6 0 6 5 8 10 5 6 -3 10 -1 10 5 0 6 5 8 10 5 6 -3
10 -1 10 5 0 6 5 8 10 5 6 -3 10 -1 10 5 0 6 4 9 9 5 5 -3 12 -1 16 5 4 6 11
8 16 5 5 -4 9 -1 9 5 0 7 7 10 15 7 8 -4 17 -2 20 3 3 5 12 7 19 4 8 -3 17 -1
21 5 3 6 17 8 30 5 12 -3 25 -2 28 3 4 7 177 7 259 0z m1595 0 c6 -4 18 -4 27
-1 9 3 16 1 16 -5 0 -6 7 -8 15 -5 8 4 15 1 15 -6 0 -6 5 -8 10 -5 6 3 10 1
10 -5 0 -6 5 -8 10 -5 6 3 10 1 10 -5 0 -6 5 -8 10 -5 6 3 10 1 10 -5 0 -6 4
-9 9 -6 5 3 12 -1 15 -9 3 -8 9 -14 13 -13 11 4 89 -74 85 -85 -1 -4 5 -10 13
-13 8 -3 12 -10 9 -15 -3 -5 2 -12 10 -15 9 -3 13 -10 10 -15 -3 -5 0 -9 6 -9
6 0 8 -4 5 -10 -3 -5 -1 -10 5 -10 6 0 8 -4 5 -10 -3 -5 -2 -10 4 -10 6 0 8
-7 5 -15 -5 -11 -2 -13 10 -9 9 3 14 10 11 14 -3 4 2 11 11 14 9 4 14 9 11 13
-4 3 1 12 11 20 11 9 12 12 2 7 -8 -3 1 8 20 25 19 18 29 30 23 26 -21 -10
-15 -1 24 36 20 18 33 27 29 19 -4 -8 7 1 25 20 17 19 28 28 25 20 -5 -10 -2
-9 7 2 8 10 17 15 20 11 4 -3 9 2 13 11 3 9 10 13 15 10 5 -3 9 0 9 6 0 6 4 9
9 5 5 -3 12 -1 16 5 4 6 11 8 16 5 5 -4 9 -1 9 5 0 7 7 10 15 7 8 -4 17 -2 20
2 3 5 14 7 25 4 11 -3 20 -1 20 3 0 11 172 10 189 0 6 -4 15 -5 20 -1 5 3 12
1 16 -4 3 -6 12 -8 20 -4 8 3 15 0 15 -7 0 -6 5 -8 10 -5 6 3 10 1 10 -5 0 -6
5 -8 10 -5 6 3 10 1 10 -5 0 -6 5 -8 10 -5 6 3 10 1 10 -4 0 -6 4 -10 9 -8 5
1 17 -7 26 -18 9 -11 14 -14 10 -7 -11 21 -1 14 40 -29 22 -23 33 -39 25 -35
-8 4 -1 -5 15 -19 17 -15 23 -24 15 -20 -10 4 -9 1 2 -8 10 -8 15 -17 11 -20
-3 -4 -1 -7 6 -7 7 0 9 -4 6 -10 -3 -5 -1 -10 5 -10 6 0 8 -4 5 -10 -3 -5 -1
-10 5 -10 6 0 8 -4 5 -10 -3 -5 -1 -10 5 -10 7 0 10 -7 6 -15 -3 -8 -1 -15 5
-15 6 0 9 -7 6 -15 -4 -8 -2 -17 3 -20 5 -3 7 -12 4 -19 -3 -8 -1 -17 5 -21 6
-3 8 -17 5 -30 -3 -12 -1 -25 4 -29 6 -3 10 -220 11 -546 l2 -540 -121 0 -121
0 0 518 c0 558 -1 571 -12 589 -4 6 -4 18 -1 27 3 9 1 16 -5 16 -6 0 -8 7 -5
15 4 8 1 15 -6 15 -6 0 -8 5 -5 10 3 6 1 10 -5 10 -6 0 -8 5 -5 10 3 6 1 10
-5 10 -6 0 -9 4 -6 9 3 5 -1 12 -10 15 -9 4 -14 9 -10 13 8 9 -25 44 -35 37
-5 -3 -12 2 -15 10 -3 9 -10 13 -15 10 -5 -3 -9 0 -9 6 0 6 -4 9 -9 5 -5 -3
-12 -1 -16 4 -3 6 -12 8 -20 4 -9 -3 -22 0 -30 7 -9 8 -30 10 -57 6 -24 -4
-53 -7 -65 -7 -13 -1 -23 -6 -23 -11 0 -6 -7 -8 -15 -4 -8 3 -15 1 -15 -5 0
-6 -4 -7 -10 -4 -5 3 -10 1 -10 -5 0 -6 -4 -8 -10 -5 -5 3 -10 1 -10 -5 0 -6
-4 -9 -9 -6 -5 3 -12 -1 -15 -9 -3 -8 -9 -14 -13 -13 -4 1 -28 -17 -52 -40
-24 -23 -40 -42 -35 -42 5 0 1 -5 -9 -11 -9 -6 -15 -14 -12 -20 4 -5 1 -9 -5
-9 -6 0 -8 -4 -5 -10 3 -5 1 -10 -5 -10 -6 0 -8 -4 -5 -10 3 -5 1 -10 -5 -10
-6 0 -8 -4 -5 -10 3 -5 2 -10 -4 -10 -6 0 -8 -7 -5 -15 4 -8 1 -15 -5 -15 -6
0 -8 -7 -5 -15 4 -8 1 -15 -6 -15 -7 0 -10 -7 -7 -15 4 -8 2 -17 -4 -21 -6 -3
-8 -13 -5 -21 3 -8 3 -20 -1 -26 -13 -20 -15 -94 -17 -527 l-1 -420 -118 0
-118 0 0 518 c0 563 0 571 -12 590 -5 6 -6 16 -2 21 3 5 1 12 -5 16 -6 4 -8
10 -5 15 3 5 1 11 -5 15 -6 4 -8 11 -5 16 4 5 1 9 -5 9 -6 0 -8 5 -5 10 3 6 1
10 -5 10 -6 0 -9 4 -6 9 3 5 -1 12 -10 15 -9 4 -14 9 -10 13 8 9 -25 44 -35
37 -5 -3 -12 2 -15 10 -3 9 -10 13 -15 10 -5 -3 -9 0 -9 6 0 6 -4 9 -9 5 -5
-3 -12 -1 -15 4 -3 5 -15 7 -25 4 -10 -3 -22 0 -25 6 -9 14 -83 14 -92 0 -3
-6 -17 -8 -30 -5 -13 4 -24 2 -24 -3 0 -6 -7 -8 -15 -5 -8 4 -15 1 -15 -6 0
-6 -4 -8 -10 -5 -5 3 -10 1 -10 -5 0 -6 -4 -8 -10 -5 -5 3 -10 1 -10 -5 0 -6
-4 -9 -9 -6 -5 3 -12 -1 -15 -9 -3 -8 -9 -14 -13 -13 -10 3 -88 -75 -85 -85 1
-4 -5 -10 -13 -13 -8 -3 -12 -10 -9 -15 3 -5 0 -9 -6 -9 -6 0 -8 -4 -5 -10 3
-5 1 -10 -5 -10 -6 0 -8 -4 -5 -10 3 -5 1 -10 -5 -10 -6 0 -8 -4 -5 -10 3 -5
1 -10 -5 -10 -6 0 -9 -4 -5 -9 3 -5 1 -12 -5 -16 -6 -4 -8 -10 -5 -15 3 -5 1
-11 -5 -15 -6 -4 -8 -11 -4 -16 3 -5 0 -16 -6 -24 -6 -8 -9 -19 -5 -25 3 -5 3
-16 -2 -22 -13 -22 -16 -88 -17 -525 l-1 -423 -115 0 -115 0 0 755 0 755 113
0 112 0 0 -115 c0 -74 4 -115 11 -115 5 0 7 5 4 10 -3 6 1 13 9 16 9 3 14 10
11 14 -3 4 7 15 21 25 14 9 23 19 20 22 -8 9 15 34 25 28 4 -3 18 8 30 24 12
17 25 28 30 26 4 -3 10 2 13 11 3 8 10 12 16 9 5 -3 10 -1 10 6 0 7 3 10 6 6
4 -3 13 1 21 9 8 8 19 12 24 9 5 -4 9 -1 9 5 0 6 4 9 9 5 5 -3 12 -1 16 5 4 6
10 8 15 5 5 -3 12 -1 15 5 4 6 15 8 25 5 10 -3 21 -2 23 2 6 10 169 9 184 0z
m2381 -1 c7 -4 17 -4 22 -1 6 4 17 2 24 -4 7 -6 21 -9 30 -5 9 4 16 1 16 -6 0
-7 7 -10 15 -7 8 4 17 2 20 -4 4 -5 11 -7 16 -4 5 4 9 1 9 -5 0 -7 7 -10 15
-6 8 3 15 1 15 -5 0 -6 5 -7 10 -4 6 3 10 1 10 -5 0 -6 5 -8 10 -5 6 3 10 1
10 -5 0 -6 4 -9 9 -6 5 3 12 -1 15 -10 3 -8 10 -13 15 -10 5 3 12 -1 15 -9 3
-8 9 -14 13 -13 10 4 117 -104 115 -115 -1 -4 5 -10 13 -13 8 -3 12 -10 9 -15
-3 -5 2 -12 10 -15 9 -3 13 -10 10 -15 -3 -5 0 -9 6 -9 6 0 8 -4 5 -10 -3 -5
-1 -10 5 -10 6 0 8 -4 5 -10 -3 -5 -1 -10 5 -10 6 0 8 -4 5 -10 -3 -5 -1 -10
5 -10 6 0 8 -4 5 -10 -3 -5 -1 -10 5 -10 6 0 9 -4 5 -9 -3 -5 -1 -12 5 -16 6
-4 8 -11 5 -16 -4 -5 -1 -9 5 -9 7 0 10 -7 7 -15 -4 -8 -2 -17 3 -20 5 -3 7
-12 3 -20 -3 -8 0 -15 7 -15 7 0 9 -8 5 -19 -3 -11 -1 -22 5 -26 6 -4 8 -15 5
-26 -4 -10 -3 -24 2 -31 4 -7 9 -29 9 -48 1 -19 5 -47 9 -62 4 -15 4 -48 1
-73 l-7 -45 -555 0 c-476 0 -554 -2 -554 -14 0 -8 5 -18 11 -22 7 -4 9 -21 5
-45 -4 -23 -2 -40 5 -44 6 -4 8 -14 5 -22 -4 -9 -1 -22 5 -29 6 -7 8 -18 4
-24 -3 -5 -1 -10 5 -10 7 0 10 -7 7 -15 -4 -8 -2 -17 4 -20 5 -4 7 -11 4 -16
-4 -5 -1 -9 5 -9 6 0 9 -4 5 -9 -3 -5 1 -16 9 -24 8 -8 12 -17 9 -21 -4 -3 -1
-6 6 -6 7 0 10 -4 7 -9 -3 -5 1 -12 10 -15 8 -3 14 -9 12 -13 -2 -5 21 -32 51
-62 30 -30 51 -48 47 -40 -4 8 -1 6 7 -3 8 -10 17 -15 20 -11 4 3 7 1 7 -6 0
-7 5 -9 10 -6 6 3 10 1 10 -5 0 -6 4 -9 9 -5 5 3 12 1 16 -4 3 -6 12 -8 20 -4
8 3 15 0 15 -7 0 -7 8 -9 20 -5 12 4 27 1 35 -5 9 -8 35 -10 72 -6 89 9 101
10 108 18 4 4 13 4 21 1 8 -3 14 0 14 7 0 6 4 9 9 5 5 -3 12 -1 16 5 4 6 11 8
16 5 5 -4 9 -1 9 5 0 6 5 8 10 5 6 -3 13 1 16 9 3 9 10 14 14 11 4 -3 15 6 24
20 9 14 22 24 28 22 7 -1 12 4 13 11 0 7 11 22 25 33 14 12 18 18 10 14 -10
-4 -9 -2 2 8 10 8 15 17 11 20 -3 4 -2 7 4 7 10 0 26 36 24 53 -1 4 4 7 10 7
5 0 8 4 5 8 -2 4 -1 14 5 22 7 12 9 12 9 1 0 -7 6 -11 15 -7 8 3 15 1 15 -5 0
-6 7 -9 15 -5 8 3 15 1 15 -5 0 -6 7 -9 15 -5 8 3 15 1 15 -5 0 -6 7 -9 15 -5
8 3 15 1 15 -5 0 -6 7 -9 15 -5 8 3 15 1 15 -4 0 -5 7 -7 15 -4 8 4 15 1 15
-5 0 -6 6 -8 14 -5 8 3 16 -3 19 -15 3 -12 1 -21 -5 -21 -5 0 -6 -4 -3 -10 3
-5 1 -10 -5 -10 -6 0 -8 -4 -5 -10 3 -5 1 -10 -5 -10 -6 0 -8 -4 -5 -10 3 -5
1 -10 -5 -10 -6 0 -9 -4 -6 -9 3 -5 -1 -12 -10 -15 -8 -3 -13 -10 -10 -15 3
-5 -1 -12 -9 -15 -8 -3 -14 -9 -13 -13 1 -4 -29 -38 -65 -75 -37 -37 -67 -64
-67 -60 0 4 -5 -1 -11 -11 -6 -9 -14 -15 -20 -12 -5 4 -9 1 -9 -5 0 -6 -5 -8
-10 -5 -6 3 -13 -1 -16 -9 -3 -9 -10 -13 -15 -10 -5 3 -9 0 -9 -6 0 -6 -4 -9
-9 -5 -5 3 -12 1 -16 -5 -4 -6 -11 -8 -16 -5 -5 4 -9 2 -9 -4 0 -6 -7 -8 -15
-5 -8 4 -15 1 -15 -5 0 -6 -7 -8 -15 -5 -8 4 -15 1 -15 -6 0 -7 -8 -9 -20 -5
-12 4 -20 2 -20 -5 0 -7 -8 -9 -20 -5 -11 3 -25 3 -32 -1 -16 -10 -239 -11
-245 -1 -2 4 -13 5 -23 2 -10 -3 -21 -1 -25 5 -4 6 -15 8 -26 5 -10 -4 -19 -2
-19 4 0 6 -7 8 -15 5 -8 -4 -15 -1 -15 5 0 6 -7 8 -15 5 -8 -4 -15 -1 -15 6 0
6 -4 8 -10 5 -5 -3 -10 -1 -10 5 0 6 -4 8 -10 5 -5 -3 -10 -1 -10 5 0 6 -4 8
-10 5 -5 -3 -10 -1 -10 5 0 6 -4 8 -10 5 -5 -3 -10 -1 -10 5 0 6 -5 8 -10 5
-6 -3 -13 1 -16 9 -3 9 -10 14 -15 11 -4 -3 -13 4 -19 15 -6 11 -15 18 -19 16
-4 -3 -30 18 -57 46 -27 28 -42 48 -34 44 8 -4 5 1 -7 12 -12 11 -19 22 -16
26 3 3 -2 8 -11 12 -9 3 -13 10 -10 15 3 5 -2 12 -10 15 -9 3 -13 10 -10 15 3
5 0 9 -6 9 -6 0 -8 5 -5 10 3 6 1 10 -5 10 -6 0 -8 5 -5 10 3 6 1 10 -5 10 -6
0 -9 4 -5 9 3 5 1 12 -5 16 -6 4 -8 11 -5 16 4 5 2 9 -4 9 -6 0 -8 7 -5 15 4
8 1 15 -5 15 -6 0 -8 7 -5 15 4 8 1 15 -6 15 -7 0 -10 7 -7 15 4 8 2 17 -4 21
-5 3 -7 14 -4 24 3 10 1 21 -5 25 -5 3 -7 17 -4 30 3 12 2 25 -3 28 -4 3 -7
72 -5 154 4 178 5 195 15 210 4 6 4 18 1 27 -3 9 -1 16 6 16 7 0 9 8 5 20 -4
12 -2 20 5 20 7 0 10 7 6 15 -3 8 -1 15 5 15 6 0 9 7 5 15 -3 8 -1 15 5 15 6
0 8 4 4 9 -3 5 -1 12 5 16 6 4 8 11 5 16 -4 5 -1 9 5 9 6 0 8 5 5 10 -3 6 -1
10 5 10 6 0 8 5 5 10 -3 6 -1 10 5 10 6 0 8 5 5 10 -3 6 1 13 9 16 9 3 14 10
11 14 -3 4 2 11 11 14 9 4 14 9 11 12 -3 4 4 15 16 26 12 11 15 16 7 12 -8 -4
7 16 34 44 27 28 53 49 57 46 4 -2 14 5 22 16 7 11 17 17 20 14 4 -4 9 1 13
10 3 9 10 13 15 10 5 -3 9 0 9 7 0 7 3 10 6 6 4 -3 13 1 21 9 8 8 19 12 24 9
5 -4 9 -1 9 5 0 6 5 8 10 5 6 -3 10 -2 10 4 0 6 7 8 15 5 8 -4 15 -1 15 5 0 6
7 8 15 5 8 -4 15 -1 15 6 0 7 8 9 20 5 12 -4 20 -2 20 5 0 6 10 8 24 4 13 -3
26 -2 29 3 6 10 208 9 225 -1z m2880 0 c7 -4 21 -4 32 -1 12 4 20 2 20 -5 0
-7 8 -9 20 -5 12 4 20 2 20 -5 0 -7 7 -10 15 -6 8 3 15 1 15 -5 0 -6 7 -9 15
-5 8 3 15 1 15 -5 0 -6 5 -7 10 -4 6 3 10 1 10 -5 0 -6 5 -8 10 -5 6 3 10 1
10 -5 0 -6 5 -8 10 -5 6 3 10 1 10 -5 0 -6 4 -9 9 -6 5 3 12 -1 15 -9 3 -8 9
-14 14 -13 5 2 19 -8 31 -22 13 -14 20 -19 16 -12 -10 20 -1 14 31 -20 16 -17
22 -28 14 -24 -8 4 -4 -2 10 -15 14 -12 24 -26 23 -30 -2 -5 2 -9 9 -9 6 0 9
-3 5 -6 -3 -4 1 -13 9 -21 8 -8 12 -19 9 -24 -4 -5 -1 -9 5 -9 6 0 8 -4 5 -10
-3 -5 -2 -10 4 -10 6 0 8 -7 5 -15 -4 -8 -1 -15 5 -15 6 0 8 -7 5 -15 -4 -8
-2 -15 4 -15 5 0 9 -11 8 -25 -1 -22 -5 -25 -23 -20 -14 3 -23 1 -23 -6 0 -7
-9 -9 -25 -5 -16 4 -25 2 -25 -5 0 -7 -9 -9 -25 -5 -16 4 -25 2 -25 -5 0 -7
-9 -9 -25 -5 -14 4 -25 2 -25 -4 0 -5 -15 -8 -32 -6 -29 3 -33 7 -31 30 1 14
-3 26 -9 26 -5 0 -8 7 -4 15 3 8 1 15 -5 15 -6 0 -9 7 -5 15 3 8 0 15 -6 15
-6 0 -8 3 -5 7 4 3 -1 12 -11 20 -10 9 -11 11 -2 7 8 -4 -3 10 -25 32 -22 21
-43 38 -47 36 -4 -1 -11 6 -17 15 -6 10 -11 14 -11 10 0 -5 -6 -5 -12 0 -7 4
-16 8 -20 9 -5 1 -9 2 -10 4 -15 12 -207 19 -214 8 -3 -5 -14 -6 -25 -3 -11 4
-19 2 -19 -5 0 -7 -7 -10 -15 -6 -8 3 -15 1 -15 -5 0 -6 -7 -9 -15 -5 -8 3
-15 1 -15 -5 0 -6 -4 -7 -10 -4 -5 3 -10 1 -10 -5 0 -6 -4 -9 -9 -5 -6 3 -15
-4 -21 -15 -6 -11 -16 -17 -22 -14 -7 4 -8 3 -4 -4 3 -6 -3 -16 -14 -22 -11
-6 -18 -15 -15 -21 4 -5 1 -9 -5 -9 -7 0 -10 -7 -7 -15 4 -8 2 -17 -2 -20 -12
-7 -10 -77 1 -92 6 -7 7 -17 3 -23 -3 -5 -1 -10 4 -10 6 0 10 -3 9 -7 -3 -11
60 -72 67 -65 3 3 5 0 5 -7 0 -7 5 -9 10 -6 6 3 10 1 10 -5 0 -6 5 -8 10 -5 6
3 10 1 10 -5 0 -6 5 -8 10 -5 6 3 10 2 10 -4 0 -6 7 -8 15 -5 8 4 15 1 15 -5
0 -6 6 -8 14 -5 8 3 17 1 20 -5 4 -6 13 -8 21 -4 8 3 15 0 15 -7 0 -7 8 -9 19
-5 11 3 22 1 26 -5 4 -6 15 -8 25 -5 10 3 21 1 25 -5 4 -6 15 -8 26 -5 11 4
19 2 19 -5 0 -7 8 -9 19 -5 11 3 22 1 26 -5 4 -6 15 -8 25 -5 10 3 21 1 24 -4
4 -6 13 -8 20 -5 8 3 17 1 20 -5 4 -6 13 -8 21 -4 8 3 15 0 15 -7 0 -7 7 -10
15 -6 8 3 15 1 15 -4 0 -5 7 -7 15 -4 8 4 15 1 15 -6 0 -6 5 -8 10 -5 6 3 10
2 10 -4 0 -6 7 -8 15 -5 8 4 15 1 15 -6 0 -6 5 -8 10 -5 6 3 10 1 10 -5 0 -6
4 -9 9 -6 5 3 12 -1 15 -10 3 -8 10 -13 15 -10 5 3 12 -1 15 -10 3 -8 10 -13
14 -10 5 3 26 -13 48 -36 21 -22 32 -38 24 -34 -8 4 -6 0 5 -9 11 -9 19 -21
18 -26 -2 -5 2 -9 8 -9 5 0 8 -4 4 -9 -3 -5 -1 -12 5 -16 6 -4 8 -10 5 -15 -3
-5 -1 -11 5 -15 6 -4 8 -11 5 -16 -4 -5 -3 -15 2 -21 10 -17 11 -168 0 -175
-4 -2 -5 -13 -2 -23 3 -10 1 -21 -5 -25 -6 -3 -8 -10 -5 -15 3 -5 1 -11 -5
-15 -6 -4 -8 -11 -5 -16 4 -5 1 -9 -5 -9 -6 0 -8 -5 -5 -10 3 -6 1 -10 -5 -10
-6 0 -8 -5 -5 -10 3 -5 1 -10 -5 -10 -6 0 -9 -4 -5 -9 3 -6 -4 -15 -16 -21
-11 -7 -18 -14 -15 -18 9 -8 -65 -82 -76 -76 -4 3 -11 -2 -14 -10 -3 -9 -10
-13 -15 -10 -5 3 -12 -2 -15 -10 -3 -9 -10 -13 -15 -10 -5 3 -9 0 -9 -6 0 -6
-4 -8 -10 -5 -5 3 -10 1 -10 -5 0 -6 -4 -8 -10 -5 -5 3 -10 1 -10 -5 0 -6 -4
-9 -9 -5 -5 3 -12 1 -16 -5 -4 -6 -11 -8 -16 -5 -5 4 -9 1 -9 -5 0 -7 -7 -10
-15 -7 -8 4 -17 2 -20 -3 -3 -5 -12 -7 -19 -4 -8 3 -17 0 -21 -6 -4 -6 -15 -8
-26 -5 -10 4 -24 3 -31 -1 -16 -10 -249 -11 -255 -1 -2 4 -13 5 -23 2 -10 -3
-21 -1 -25 5 -4 6 -15 8 -26 5 -10 -4 -19 -2 -19 4 0 6 -7 8 -15 5 -8 -4 -15
-1 -15 6 0 7 -7 10 -15 6 -8 -3 -15 -1 -15 5 0 6 -4 7 -10 4 -5 -3 -10 -1 -10
5 0 7 -7 10 -15 6 -8 -3 -15 -1 -15 5 0 6 -4 8 -9 5 -5 -3 -12 1 -15 10 -3 8
-10 12 -16 9 -5 -3 -10 -1 -10 5 0 6 -4 9 -9 5 -6 -3 -15 4 -21 15 -6 11 -15
18 -19 16 -4 -3 -28 16 -52 41 -24 25 -37 43 -29 39 8 -4 5 1 -7 12 -12 11
-19 22 -16 26 3 3 -2 8 -11 12 -9 3 -13 10 -10 15 3 5 0 9 -6 9 -6 0 -8 5 -5
10 3 6 1 10 -5 10 -6 0 -8 5 -5 10 3 6 1 10 -5 10 -6 0 -8 5 -5 10 3 6 1 10
-5 10 -7 0 -10 7 -6 15 3 8 1 15 -4 15 -5 0 -7 7 -4 15 4 8 1 15 -6 15 -7 0
-9 8 -5 20 3 11 2 20 -3 20 -6 0 -9 11 -8 24 0 13 4 22 8 20 4 -2 9 0 13 6 3
5 17 7 31 4 15 -4 24 -2 24 6 0 8 9 10 24 6 14 -3 28 -1 31 5 4 6 14 8 22 5 9
-4 22 -1 29 5 7 6 18 8 24 4 6 -4 18 -1 26 6 12 10 13 9 8 -5 -3 -9 -1 -22 5
-30 6 -7 9 -20 5 -29 -3 -8 -1 -18 5 -21 6 -4 8 -13 4 -21 -3 -8 0 -15 7 -15
6 0 9 -4 5 -9 -3 -5 -1 -12 5 -16 6 -4 8 -10 5 -15 -3 -4 2 -11 11 -14 9 -4
14 -9 11 -12 -3 -4 4 -15 16 -26 12 -11 16 -17 10 -13 -20 10 -15 0 14 -26 14
-13 23 -17 19 -9 -4 8 1 5 12 -7 11 -12 22 -19 26 -16 3 4 6 2 6 -4 0 -10 36
-26 53 -24 4 1 7 -3 7 -9 0 -5 7 -7 15 -4 8 4 15 1 15 -6 0 -7 8 -9 19 -5 11
3 22 2 24 -2 7 -11 158 -10 175 0 6 5 16 6 21 2 5 -3 12 -1 16 4 3 6 12 8 20
4 8 -3 15 0 15 7 0 6 5 8 10 5 6 -3 10 -1 10 5 0 6 5 8 10 5 6 -3 10 -1 10 4
0 6 4 10 9 8 5 -1 17 7 26 18 9 11 14 14 10 8 -10 -20 0 -15 26 14 13 14 17
23 9 19 -8 -4 -4 2 9 13 13 12 20 21 16 21 -3 0 1 7 9 16 9 8 14 20 11 25 -4
5 -2 9 3 9 8 0 11 18 11 75 0 57 -3 75 -11 75 -5 0 -6 5 -3 10 3 6 1 10 -5 10
-6 0 -9 4 -6 9 3 5 -1 12 -10 15 -8 3 -13 10 -9 15 3 5 0 13 -6 17 -8 5 -10 2
-5 -7 4 -8 -2 -3 -15 11 -12 14 -26 24 -30 23 -5 -2 -9 2 -9 8 0 5 -4 7 -10 4
-5 -3 -10 -1 -10 5 0 6 -4 8 -10 5 -5 -3 -10 -2 -10 4 0 6 -7 8 -15 5 -8 -4
-15 -1 -15 5 0 6 -6 8 -14 5 -8 -3 -17 -1 -20 5 -4 6 -13 8 -20 5 -8 -3 -17 0
-21 6 -4 6 -15 8 -25 5 -10 -3 -21 -1 -25 5 -3 5 -17 7 -31 4 -15 -4 -24 -2
-24 6 0 8 -9 10 -24 6 -14 -3 -28 -1 -31 4 -4 6 -15 8 -26 5 -11 -4 -19 -2
-19 5 0 7 -8 9 -19 5 -11 -3 -22 -1 -26 5 -4 6 -13 9 -21 6 -7 -3 -16 -1 -19
4 -3 5 -12 7 -20 3 -8 -3 -15 0 -15 6 0 6 -7 8 -15 5 -8 -4 -15 -1 -15 6 0 6
-4 9 -9 5 -5 -3 -12 -1 -16 5 -4 6 -11 8 -16 5 -5 -4 -9 -1 -9 5 0 6 -4 8 -10
5 -5 -3 -10 -1 -10 5 0 6 -4 8 -10 5 -5 -3 -10 -1 -10 5 0 6 -4 9 -9 5 -6 -3
-14 2 -19 11 -5 9 -11 16 -15 16 -10 -1 -94 87 -89 93 3 2 -3 7 -12 11 -9 3
-13 10 -10 15 3 5 0 9 -5 9 -6 0 -10 3 -10 8 1 4 0 10 -1 15 -1 4 -4 12 -5 17
-1 6 -4 11 -5 13 -2 3 -11 85 -11 112 0 40 7 90 14 103 5 6 5 17 2 22 -3 6 -2
10 4 10 6 0 8 7 5 15 -4 8 -1 15 6 15 6 0 8 5 5 10 -3 6 -1 10 4 10 6 0 10 4
9 9 -2 5 6 17 17 26 11 9 13 13 5 9 -8 -4 3 12 24 34 22 23 43 39 47 36 4 -2
13 5 19 16 6 11 15 18 21 15 5 -4 9 -1 9 5 0 6 5 8 10 5 6 -3 10 -1 10 5 0 6
5 8 10 5 6 -3 10 -1 10 5 0 6 5 8 10 5 6 -3 10 -1 10 5 0 6 4 9 9 5 5 -3 12
-1 16 5 4 6 10 8 15 5 5 -3 11 -1 15 4 3 6 12 8 20 4 8 -3 15 0 15 7 0 7 8 9
20 5 12 -4 20 -2 20 5 0 6 10 8 24 4 13 -3 26 -2 29 3 6 10 229 9 245 -1z
m-1048 -771 l0 -755 -120 0 -120 0 0 755 0 755 120 0 120 0 0 -755z m-10997
398 l98 -98 86 90 87 90 371 -373 370 -372 75 75 75 75 -125 125 -125 125 61
61 61 61 69 -60 c38 -33 146 -138 241 -234 l172 -173 -64 -66 -65 -67 -36 40
-36 41 -77 -77 -76 -77 40 -37 40 -37 -240 -238 -241 -237 -34 37 -35 38 40
-35 40 -35 -38 40 -37 40 -67 -68 -68 -67 40 -37 40 -38 -35 40 -35 40 38 -35
37 -34 -67 -68 -68 -68 -231 231 c-127 127 -231 237 -231 244 0 17 101 118
120 121 8 1 68 -53 133 -120 l119 -121 -122 120 c-68 66 -123 117 -123 115 0
-3 53 -58 118 -123 l117 -117 68 68 67 67 -373 370 -372 370 370 -375 370
-375 -372 370 -373 370 88 88 88 88 -101 100 -102 100 61 59 c34 33 63 60 66
60 2 0 49 -44 103 -97z m11472 -303 c10 -11 16 -20 13 -20 -3 0 -13 9 -23 20
-10 11 -16 20 -13 20 3 0 13 -9 23 -20z m-1895 -673 c0 -2 -12 -14 -27 -28
l-28 -24 24 28 c23 25 31 32 31 24z"/>
<path d="M480 3283 l-55 -58 58 55 c31 30 57 56 57 57 0 8 -10 -1 -60 -54z"/>
<path d="M6613 1807 c-3 -5 -16 -6 -28 -3 -13 3 -26 2 -30 -4 -3 -5 -12 -7
-20 -3 -8 3 -15 0 -15 -7 0 -7 -7 -10 -15 -6 -8 3 -15 1 -15 -5 0 -6 -4 -7
-10 -4 -5 3 -10 1 -10 -5 0 -6 -4 -8 -10 -5 -5 3 -10 1 -10 -5 0 -6 -4 -8 -10
-5 -5 3 -10 1 -10 -5 0 -6 -4 -9 -9 -6 -5 3 -12 -1 -15 -9 -3 -8 -9 -14 -13
-13 -10 3 -68 -55 -65 -64 1 -5 -2 -8 -8 -8 -6 0 -10 -7 -10 -15 0 -8 -5 -15
-11 -15 -6 0 -9 -7 -5 -15 3 -8 1 -15 -5 -15 -6 0 -7 -5 -4 -10 4 -6 3 -16 -3
-23 -12 -16 -13 -89 0 -104 5 -7 7 -17 3 -23 -3 -5 -1 -10 5 -10 7 0 10 -6 7
-14 -3 -8 1 -17 9 -20 9 -3 14 -9 12 -13 -5 -10 59 -72 66 -65 3 3 8 -3 12
-12 3 -9 10 -14 14 -11 5 3 11 1 15 -5 4 -6 10 -8 15 -5 5 3 11 1 14 -4 3 -5
15 -7 25 -4 10 3 22 0 25 -6 9 -14 103 -14 112 0 3 6 17 8 30 5 15 -4 24 -2
24 5 0 6 7 9 15 5 8 -3 15 -1 15 5 0 6 7 9 15 5 8 -3 15 -1 15 5 0 6 5 7 10 4
6 -3 10 -1 10 5 0 6 5 8 10 5 6 -3 10 -1 10 4 0 6 4 10 9 9 5 -2 17 6 26 17 9
11 13 13 9 5 -4 -8 12 3 35 25 43 41 50 51 29 40 -7 -4 -4 1 7 10 11 9 19 21
18 26 -2 5 1 9 7 9 6 0 10 7 10 15 0 8 5 15 11 15 5 0 8 4 4 9 -3 5 -1 12 5
16 6 4 8 11 5 16 -4 5 -1 9 5 9 6 0 9 4 5 9 -3 5 -1 12 4 16 6 3 8 12 4 20 -3
8 0 15 7 15 7 0 10 7 6 16 -3 9 -3 21 1 27 5 7 9 26 10 42 2 17 6 56 9 88 l6
59 -192 -4 c-106 -2 -194 -7 -197 -11z"/>
<path d="M10640 2430 c-8 -5 -22 -7 -32 -4 -9 2 -19 0 -22 -5 -4 -6 -13 -8
-21 -4 -8 3 -15 0 -15 -7 0 -6 -4 -8 -10 -5 -5 3 -10 1 -10 -5 0 -6 -4 -8 -10
-5 -5 3 -10 1 -10 -5 0 -6 -4 -8 -10 -5 -5 3 -10 1 -10 -4 0 -6 -4 -10 -9 -8
-4 1 -18 -9 -30 -23 -13 -14 -19 -18 -15 -10 4 8 -5 4 -19 -9 -31 -28 -36 -40
-9 -21 9 7 1 -2 -18 -20 -19 -18 -28 -29 -20 -26 10 5 9 2 -2 -7 -10 -8 -15
-17 -11 -20 3 -4 1 -7 -6 -7 -7 0 -9 -4 -6 -10 3 -5 1 -10 -5 -10 -6 0 -8 -4
-5 -10 3 -5 1 -10 -5 -10 -6 0 -8 -4 -5 -10 3 -5 2 -10 -4 -10 -6 0 -8 -7 -5
-15 4 -8 1 -15 -5 -15 -6 0 -8 -7 -5 -15 4 -8 1 -15 -6 -15 -7 0 -9 -8 -5 -20
4 -12 2 -20 -5 -20 -6 0 -8 -10 -4 -25 4 -15 2 -25 -5 -25 -6 0 -10 -11 -9
-25 l2 -25 411 0 410 0 1 40 c1 22 -3 40 -8 40 -6 0 -8 9 -5 20 3 11 1 23 -5
26 -5 3 -7 12 -4 20 3 7 1 16 -5 19 -5 4 -7 10 -4 15 3 5 1 11 -5 15 -6 4 -8
11 -5 16 4 5 1 9 -5 9 -6 0 -8 5 -5 10 3 6 1 10 -5 10 -6 0 -8 5 -5 10 3 6 1
10 -5 10 -6 0 -8 5 -5 10 3 6 1 10 -5 10 -6 0 -9 4 -5 9 3 6 -4 15 -16 21 -11
7 -18 14 -15 18 9 8 -45 62 -56 56 -4 -3 -11 2 -14 10 -3 9 -10 13 -15 10 -5
-3 -12 2 -15 10 -3 9 -10 14 -14 11 -5 -3 -11 -1 -15 5 -4 6 -11 8 -16 5 -5
-4 -9 -2 -9 4 0 6 -7 8 -15 5 -8 -4 -15 -1 -15 5 0 7 -9 9 -24 5 -13 -3 -27
-1 -30 5 -9 14 -86 14 -106 1z"/>
<path d="M10415 1360 c10 -11 20 -20 23 -20 3 0 -3 9 -13 20 -10 11 -20 20
-23 20 -3 0 3 -9 13 -20z"/>
<path d="M2620 2033 l-55 -58 58 55 c53 50 62 60 54 60 -1 0 -27 -26 -57 -57z"/>
<path d="M1874 1880 l-61 -59 64 -63 63 -63 65 68 c36 36 63 65 60 63 -3 -2
-31 23 -62 55 -31 33 -59 59 -62 59 -3 0 -33 -27 -67 -60z m176 -63 c0 -1 -26
-27 -57 -57 l-58 -55 55 58 c50 53 60 62 60 54z"/>
<path d="M1750 1163 l-55 -58 58 55 c31 30 57 56 57 57 0 8 -10 -1 -60 -54z"/>
<path d="M1925 870 c126 -126 232 -230 235 -230 3 0 -99 104 -225 230 -126
127 -232 230 -235 230 -3 0 99 -103 225 -230z"/>
</g>
</svg>
